<svg version="1.2" xmlns="http://www.w3.org/2000/svg" viewBox="0 0 771 247" width="771" height="247"><style>.a{fill:#111}</style><path class="a" d="m113.1 0l28.9 16.6-113.3 196.1-28.7-16.6z"/><path class="a" d="m284.7 196.5l-28.8 16.6-113.1-196.2 28.7-16.6z"/><path class="a" d="m28.4 213.1h226.6v33.2h-226.6z"/><path fill-rule="evenodd" class="a" d="m364.6 190l-29.1-106.5h21.7l10.9 44.7 9.6 40.3h0.6l11.1-40.3 12.8-44.7h20.1l13.1 44.7 11.3 40.3h0.6l9.4-40.3 11.1-44.7h20.6l-28.6 106.5h-25.2l-13.9-48.5-8.6-29.9h-0.4l-8.4 29.9-14.2 48.5zm233.4 0h-12.5q-8.8 0-13.5-4.9-4.7-5.1-5.7-12.9h-1q-3.1 10-11.3 15.1-8.2 5.2-19.8 5.2-16.6 0-25.6-8.6-8.8-8.6-8.8-23.2 0-15.9 11.4-23.9 11.7-8 34-8h19.3v-9q0-9.8-5.4-15.2-5.3-5.3-16.6-5.3-9.4 0-15.3 4.1-5.9 4.1-10 10.4l-13.3-12q5.3-9 14.9-14.8 9.6-5.9 25.2-5.9 20.7 0 31.7 9.6 11.1 9.6 11.1 27.6v53.5h11.2zm-57.5-14.6q10.4 0 17.2-4.5 6.8-4.7 6.8-12.4v-15.4h-18.9q-23.1 0-23.1 14.3v3.7q0 7.2 4.7 10.9 4.9 3.4 13.3 3.4zm155.8 14.6h-85v-18l57.1-70.3h-55.2v-18.2h81.7v17.2l-58 71.1h59.4zm72.3 0h-19.5q-11.7 0-17.6-6-5.9-6.1-5.9-17.2v-65.1h-16.6v-18.2h9q5.5 0 7.6-2.5 2.2-2.4 2.2-7.9v-18.7h20.1v29.1h22.3v18.2h-22.3v70h20.7z"/></svg>